<?xml version="1.0" encoding="UTF-8" standalone="no"?>
<!-- Created with Inkscape (http://www.inkscape.org/) -->

<svg
   xmlns:dc="http://purl.org/dc/elements/1.1/"
   xmlns:cc="http://creativecommons.org/ns#"
   xmlns:rdf="http://www.w3.org/1999/02/22-rdf-syntax-ns#"
   xmlns:svg="http://www.w3.org/2000/svg"
   xmlns="http://www.w3.org/2000/svg"
   xmlns:xlink="http://www.w3.org/1999/xlink"
   xmlns:sodipodi="http://sodipodi.sourceforge.net/DTD/sodipodi-0.dtd"
   xmlns:inkscape="http://www.inkscape.org/namespaces/inkscape"
   width="450"
   height="450"
   id="svg3104"
   version="1.1"
   inkscape:version="0.48.1 r9760"
   sodipodi:docname="desubot_tweaked.svg"
   inkscape:export-filename="/media/stuff/Work/Desura/branding/icons/32.png"
   inkscape:export-xdpi="6.4000001"
   inkscape:export-ydpi="6.4000001">
  <defs
     id="defs3106" />
  <sodipodi:namedview
     id="base"
     pagecolor="#ffffff"
     bordercolor="#666666"
     borderopacity="1.0"
     inkscape:pageopacity="0.0"
     inkscape:pageshadow="2"
     inkscape:zoom="1.4142136"
     inkscape:cx="238.39952"
     inkscape:cy="285.99325"
     inkscape:document-units="px"
     inkscape:current-layer="layer13"
     showgrid="false"
     fit-margin-top="0"
     fit-margin-left="0"
     fit-margin-right="0"
     fit-margin-bottom="0"
     showguides="false"
     inkscape:guide-bbox="true"
     inkscape:window-width="1269"
     inkscape:window-height="1004"
     inkscape:window-x="390"
     inkscape:window-y="51"
     inkscape:window-maximized="0">
    <sodipodi:guide
       orientation="1,0"
       position="224.64286,329.28571"
       id="guide3136" />
  </sodipodi:namedview>
  <metadata
     id="metadata3109">
    <rdf:RDF>
      <cc:Work
         rdf:about="">
        <dc:format>image/svg+xml</dc:format>
        <dc:type
           rdf:resource="http://purl.org/dc/dcmitype/StillImage" />
        <cc:license
           rdf:resource="" />
        <dc:title />
      </cc:Work>
    </rdf:RDF>
  </metadata>
  <g
     inkscape:groupmode="layer"
     id="layer12"
     inkscape:label="background"
     style="display:none">
    <rect
       inkscape:export-ydpi="90"
       inkscape:export-xdpi="90"
       inkscape:export-filename="/home/shi/Desktop/t/desubot.png"
       y="0"
       x="0"
       height="450"
       width="450"
       id="rect4582"
       style="fill:#1a1a1a;fill-opacity:1;stroke:none;display:inline" />
  </g>
  <g
     inkscape:groupmode="layer"
     id="layer13"
     inkscape:label="desubot_outline">
    <path
       sodipodi:type="inkscape:offset"
       inkscape:radius="19.183485"
       inkscape:original="M 224.71875 39.8125 C 156.53576 39.8125 102.27694 70.52477 83.84375 106.40625 C 78.56833 116.67523 75.125 127.87315 75.125 140.15625 C 75.125 178.51555 105.98445 209.40625 144.34375 209.40625 L 195.5625 209.40625 L 195.5625 224.125 L 135.71875 224.125 C 122.54315 224.125 111.9375 234.73065 111.9375 247.90625 L 111.9375 248.90625 C 87.1837 260.23735 59.338 279.5074 51 310.625 C 40.5459 349.6402 76.6884 370.5886 103 380.4375 C 111.6406 410.2341 149.8125 410.1875 149.8125 410.1875 L 181 410.1875 C 201.5782 410.1875 211.37905 403.1732 211.59375 394.3125 L 211.59375 377.28125 L 151 377.25 L 151 359.75 L 211.59375 359.71875 L 211.59375 342.65625 C 211.26575 333.82875 198.4614 326.8125 181 326.8125 L 149.78125 326.8125 C 149.78125 326.8125 116.05005 326.8315 104.84375 350.4375 C 64.51474 331.1943 86.099 306.57505 111.9375 289.03125 L 111.9375 291.8125 C 111.9375 304.9881 122.54315 315.59375 135.71875 315.59375 L 224.71875 315.59375 L 313.71875 315.59375 C 326.89435 315.59375 337.5 304.9881 337.5 291.8125 L 337.5 289.03125 C 363.3385 306.57505 384.92276 331.1943 344.59375 350.4375 C 333.38745 326.8315 299.65625 326.8125 299.65625 326.8125 L 268.4375 326.8125 C 250.9761 326.8125 238.17175 333.82865 237.84375 342.65625 L 237.84375 359.71875 L 298.4375 359.75 L 298.4375 377.25 L 237.84375 377.28125 L 237.84375 394.3125 C 238.05845 403.1732 247.8593 410.1875 268.4375 410.1875 L 299.625 410.1875 C 299.625 410.1875 337.7969 410.2341 346.4375 380.4375 C 372.7491 370.5886 408.8916 349.6402 398.4375 310.625 C 390.0995 279.5074 362.2538 260.23735 337.5 248.90625 L 337.5 247.90625 C 337.5 234.73065 326.89435 224.125 313.71875 224.125 L 253.875 224.125 L 253.875 209.40625 L 305.09375 209.40625 C 343.45305 209.40625 374.3125 178.51555 374.3125 140.15625 C 374.3125 127.87315 370.86917 116.67523 365.59375 106.40625 C 347.16056 70.52467 292.90174 39.8125 224.71875 39.8125 z "
       xlink:href="#path3548"
       style="fill:#1a1a1a;fill-opacity:1;fill-rule:evenodd;stroke:none;display:inline"
       id="path3550"
       d="m 224.71875,20.625 c -73.94365,0 -134.545599,31.466046 -157.9375,77 -6.315209,12.293 -10.84375,26.663 -10.84375,42.53125 0,34.27231 19.76598,64.08715 48.4375,78.75 -4.486688,4.83921 -7.811351,10.67392 -9.71875,17.125 -25.189357,13.10072 -52.771411,34.48395 -62.1875,69.625 -6.879664,25.67523 2.662511,49.45627 16.96875,64.1875 11.846714,12.19864 26.06019,19.86978 38.9375,25.3125 8.202011,16.13339 23.0724,25.29046 34.9375,29.4375 13.98558,4.88818 26.45152,4.7817 26.5,4.78125 9e-5,0 0.0313,0 0.0313,0 l 31.15625,0 c 12.46873,0 23.07226,-1.85367 32.375,-7.125 4.33021,-2.45368 8.27142,-6.17218 11.34375,-10.53125 3.07233,4.35907 7.01354,8.07757 11.34375,10.53125 9.30274,5.27133 19.90627,7.125 32.375,7.125 l 31.15625,0 c 0,0 0.0312,0 0.0313,0 0.0485,4.5e-4 12.51442,0.10693 26.5,-4.78125 11.8651,-4.14704 26.73549,-13.30411 34.9375,-29.4375 12.87731,-5.44272 27.09079,-13.11386 38.9375,-25.3125 14.30624,-14.73123 23.84841,-38.51227 16.96875,-64.1875 -9.41609,-35.14105 -36.99814,-56.52428 -62.1875,-69.625 -1.9074,-6.45108 -5.23206,-12.28579 -9.71875,-17.125 28.67152,-14.66285 48.4375,-44.47769 48.4375,-78.75 0,-15.86825 -4.52854,-30.23825 -10.84375,-42.53125 -23.39189,-45.534068 -83.99387,-77 -157.9375,-77 z M 104.625,321.125 c 0.0101,0.0107 0.0212,0.0206 0.0313,0.0313 -0.0523,0.0391 -0.10399,0.0856 -0.15625,0.125 0.0368,-0.0448 0.0875,-0.11094 0.125,-0.15625 z m 240.1875,0 c 0.0375,0.0453 0.0882,0.11148 0.125,0.15625 -0.0523,-0.0394 -0.10392,-0.0859 -0.15625,-0.125 0.0101,-0.0107 0.0212,-0.0206 0.0313,-0.0313 z"
       inkscape:href="#path3548" />
  </g>
  <g
     inkscape:label="desubot"
     inkscape:groupmode="layer"
     id="layer1"
     transform="translate(-150,-307.36218)"
     style="display:inline">
    <path
       style="fill:#1480cd;fill-opacity:1;fill-rule:evenodd;stroke:none"
       d="m 224.71875,39.8125 c -68.18299,0 -122.44181,30.71227 -140.875,66.59375 -5.27542,10.26898 -8.71875,21.4669 -8.71875,33.75 0,38.3593 30.85945,69.25 69.21875,69.25 l 51.21875,0 0,14.71875 -59.84375,0 c -13.1756,0 -23.78125,10.60565 -23.78125,23.78125 l 0,1 C 87.1837,260.23735 59.338,279.5074 51,310.625 c -10.4541,39.0152 25.6884,59.9636 52,69.8125 8.6406,29.7966 46.8125,29.75 46.8125,29.75 l 31.1875,0 c 20.5782,0 30.37905,-7.0143 30.59375,-15.875 l 0,-17.03125 L 151,377.25 l 0,-17.5 60.59375,-0.0313 0,-17.0625 C 211.26575,333.82865 198.4614,326.8125 181,326.8125 l -31.21875,0 c 0,0 -33.7312,0.019 -44.9375,23.625 C 64.51474,331.1943 86.099,306.57505 111.9375,289.03125 l 0,2.78125 c 0,13.1756 10.60565,23.78125 23.78125,23.78125 l 89,0 89,0 c 13.1756,0 23.78125,-10.60565 23.78125,-23.78125 l 0,-2.78125 c 25.8385,17.5438 47.42276,42.16305 7.09375,61.40625 -11.2063,-23.606 -44.9375,-23.625 -44.9375,-23.625 l -31.21875,0 c -17.4614,0 -30.26575,7.01615 -30.59375,15.84375 l 0,17.0625 60.59375,0.0313 0,17.5 -60.59375,0.0313 0,17.03125 c 0.2147,8.8607 10.01555,15.875 30.59375,15.875 l 31.1875,0 c 0,0 38.1719,0.0466 46.8125,-29.75 26.3116,-9.8489 62.4541,-30.7973 52,-69.8125 -8.338,-31.1176 -36.1837,-50.38765 -60.9375,-61.71875 l 0,-1 c 0,-13.1756 -10.60565,-23.78125 -23.78125,-23.78125 l -59.84375,0 0,-14.71875 51.21875,0 c 38.3593,0 69.21875,-30.8907 69.21875,-69.25 0,-12.2831 -3.44333,-23.48102 -8.71875,-33.75 C 347.16056,70.52477 292.90174,39.8125 224.71875,39.8125 z m -79.3125,52.625 79.3125,0 79.3125,0 c 26.4483,0 47.75,21.27045 47.75,47.71875 0,26.4483 -21.3017,47.75 -47.75,47.75 l -79.3125,0 -79.3125,0 c -26.4483,0 -47.75,-21.3017 -47.75,-47.75 0,-26.4483 21.3017,-47.71875 47.75,-47.71875 z"
       transform="translate(150,307.36218)"
       id="path4586"
       inkscape:connector-curvature="0" />
  </g>
  <g
     inkscape:groupmode="layer"
     id="layer8"
     inkscape:label="eye_right_cog"
     style="display:none">
    <path
       style="fill:#1480cd;fill-opacity:1;stroke:none;display:inline"
       d="m 304.67859,99.62933 c 4.12017,0 7.43943,3.3193 7.43943,7.4393 l 0,0.8378 c 2.44622,0.6861 4.772,1.6724 6.94077,2.8919 l 0.59835,-0.5982 c 2.91333,-2.9134 7.61742,-2.9134 10.53083,0 l 1.59558,1.5955 c 2.91336,2.9134 2.91336,7.6175 0,10.5309 l -0.59835,0.5982 c 1.21963,2.169 2.20591,4.4946 2.89197,6.9409 l 0.83768,0 c 4.12015,0 7.43939,3.3192 7.43939,7.4393 l 0,2.2738 c 0,4.1201 -3.31924,7.4393 -7.43939,7.4393 l -0.83768,0 c -0.68606,2.4464 -1.67234,4.7722 -2.89197,6.9408 l 0.59835,0.5984 c 2.91336,2.9132 2.91336,7.6173 0,10.5309 l -1.59558,1.5955 c -2.91341,2.9133 -7.6175,2.9133 -10.53083,0 l -0.59835,-0.5983 c -2.16877,1.2197 -4.49455,2.2059 -6.94077,2.8919 l 0,0.8378 c 0,4.1201 -3.31926,7.4393 -7.43943,7.4393 l -2.2737,0 c -4.12017,0 -7.43936,-3.3192 -7.43936,-7.4393 l 0,-0.8378 c -2.44621,-0.686 -4.77205,-1.6722 -6.94077,-2.8919 l -0.59834,0.5983 c -2.91341,2.9133 -7.61749,2.9133 -10.53083,0 l -1.59558,-1.5955 c -2.91341,-2.9136 -2.91341,-7.6177 0,-10.5309 l 0.59834,-0.5984 c -1.21966,-2.1686 -2.20598,-4.4944 -2.89202,-6.9408 l -0.83769,0 c -4.12016,0 -7.43935,-3.3192 -7.43935,-7.4393 l 0,-2.2738 c 0,-4.1201 3.31919,-7.4393 7.43935,-7.4393 l 0.83769,0 c 0.68604,-2.4463 1.67236,-4.7719 2.89202,-6.9409 l -0.59834,-0.5982 c -2.91341,-2.9134 -2.91341,-7.6175 0,-10.5309 l 1.59558,-1.5955 c 2.91334,-2.9134 7.61742,-2.9134 10.53083,0 l 0.59834,0.5982 c 2.16872,-1.2195 4.49456,-2.2058 6.94077,-2.8919 l 0,-0.8378 c 0,-4.12 3.31919,-7.4393 7.43936,-7.4393 l 2.2737,0 z m -1.13681,18.1499 c -11.41114,0 -20.66277,9.2515 -20.66277,20.6626 0,11.4111 9.25163,20.6627 20.66277,20.6627 11.41114,0 20.66276,-9.2516 20.66276,-20.6627 0,-11.4111 -9.25162,-20.6626 -20.66276,-20.6626 z"
       id="path3329"
       inkscape:connector-curvature="0" />
  </g>
  <g
     inkscape:groupmode="layer"
     id="layer7"
     inkscape:label="eye_left_cog"
     style="display:none">
    <path
       inkscape:connector-curvature="0"
       id="path4580"
       d="m 144.73953,99.62933 c -4.12017,0 -7.43943,3.3193 -7.43943,7.4393 l 0,0.8378 c -2.44622,0.6861 -4.772,1.6724 -6.94077,2.8919 l -0.59835,-0.5982 c -2.91333,-2.9134 -7.61742,-2.9134 -10.53083,0 l -1.59558,1.5955 c -2.91336,2.9134 -2.91336,7.6175 0,10.5309 l 0.59835,0.5982 c -1.21963,2.169 -2.20591,4.4946 -2.89197,6.9409 l -0.83768,0 c -4.12015,0 -7.43939,3.3192 -7.43939,7.4393 l 0,2.2738 c 0,4.1201 3.31924,7.4393 7.43939,7.4393 l 0.83768,0 c 0.68606,2.4464 1.67234,4.7722 2.89197,6.9408 l -0.59835,0.5984 c -2.91336,2.9132 -2.91336,7.6173 0,10.5309 l 1.59558,1.5955 c 2.91341,2.9133 7.6175,2.9133 10.53083,0 l 0.59835,-0.5983 c 2.16877,1.2197 4.49455,2.2059 6.94077,2.8919 l 0,0.8378 c 0,4.1201 3.31926,7.4393 7.43943,7.4393 l 2.2737,0 c 4.12017,0 7.43936,-3.3192 7.43936,-7.4393 l 0,-0.8378 c 2.44621,-0.686 4.77205,-1.6722 6.94077,-2.8919 l 0.59834,0.5983 c 2.91341,2.9133 7.61749,2.9133 10.53083,0 l 1.59558,-1.5955 c 2.91341,-2.9136 2.91341,-7.6177 0,-10.5309 l -0.59834,-0.5984 c 1.21966,-2.1686 2.20598,-4.4944 2.89202,-6.9408 l 0.83769,0 c 4.12016,0 7.43935,-3.3192 7.43935,-7.4393 l 0,-2.2738 c 0,-4.1201 -3.31919,-7.4393 -7.43935,-7.4393 l -0.83769,0 c -0.68604,-2.4463 -1.67236,-4.7719 -2.89202,-6.9409 l 0.59834,-0.5982 c 2.91341,-2.9134 2.91341,-7.6175 0,-10.5309 l -1.59558,-1.5955 c -2.91334,-2.9134 -7.61742,-2.9134 -10.53083,0 l -0.59834,0.5982 c -2.16872,-1.2195 -4.49456,-2.2058 -6.94077,-2.8919 l 0,-0.8378 c 0,-4.12 -3.31919,-7.4393 -7.43936,-7.4393 l -2.2737,0 z m 1.13681,18.1499 c 11.41114,0 20.66277,9.2515 20.66277,20.6626 0,11.4111 -9.25163,20.6627 -20.66277,20.6627 -11.41114,0 -20.66276,-9.2516 -20.66276,-20.6627 0,-11.4111 9.25162,-20.6626 20.66276,-20.6626 z"
       style="fill:#1480cd;fill-opacity:1;stroke:none;display:inline" />
  </g>
  <g
     inkscape:groupmode="layer"
     id="layer10"
     inkscape:label="eye_right_circle"
     style="display:inline">
    <path
       transform="matrix(-0.86907279,0,0,0.86907279,569.63704,-226.2809)"
       d="m 343.02654,419.66879 a 36.84359,36.84359 0 1 1 -73.68718,0 36.84359,36.84359 0 1 1 73.68718,0 z"
       sodipodi:ry="36.84359"
       sodipodi:rx="36.84359"
       sodipodi:cy="419.66879"
       sodipodi:cx="306.18295"
       id="path3327"
       style="fill:#1480cd;fill-opacity:1;stroke:none;display:inline"
       sodipodi:type="arc" />
  </g>
  <g
     inkscape:groupmode="layer"
     id="layer9"
     inkscape:label="eye_left_circle"
     style="display:inline">
    <path
       sodipodi:type="arc"
       style="fill:#1480cd;fill-opacity:1;stroke:none;display:inline"
       id="path4588"
       sodipodi:cx="306.18295"
       sodipodi:cy="419.66879"
       sodipodi:rx="36.84359"
       sodipodi:ry="36.84359"
       d="m 343.02654,419.66879 a 36.84359,36.84359 0 1 1 -73.68718,0 36.84359,36.84359 0 1 1 73.68718,0 z"
       transform="matrix(0.86907279,0,0,0.86907279,-120.21892,-226.2809)" />
  </g>
  <g
     inkscape:groupmode="layer"
     id="layer3"
     inkscape:label="chest_cog"
     style="display:inline">
    <path
       style="fill:#1a1a1a;fill-opacity:1;stroke:none;display:inline"
       d="m 223.75341,237.07979 c -3.4636,0 -6.2539,2.7903 -6.2539,6.2538 l 0,0.7042 c -2.0564,0.5768 -4.0115,1.4059 -5.8346,2.4311 l -0.503,-0.5029 c -2.4491,-2.4491 -6.4035,-2.4491 -8.8526,0 l -1.3413,1.3412 c -2.4491,2.4492 -2.4491,6.4036 0,8.8527 l 0.503,0.5029 c -1.0253,1.8233 -1.8544,3.7783 -2.4311,5.8348 l -0.7042,0 c -3.4636,0 -6.2539,2.7902 -6.2539,6.2537 l 0,1.9114 c 0,3.4636 2.7903,6.2538 6.2539,6.2538 l 0.7042,0 c 0.5767,2.0565 1.4058,4.0117 2.4311,5.8347 l -0.503,0.503 c -2.4491,2.449 -2.4491,6.4034 0,8.8527 l 1.3413,1.3412 c 2.4491,2.4491 6.4035,2.4491 8.8526,0 l 0.503,-0.5029 c 1.8231,1.0253 3.7782,1.8543 5.8346,2.431 l 0,0.7043 c 0,3.4635 2.7903,6.2537 6.2539,6.2537 l 1.9113,0 c 3.4636,0 6.2539,-2.7902 6.2539,-6.2537 l 0,-0.7043 c 2.0563,-0.5767 4.0115,-1.4057 5.8346,-2.431 l 0.503,0.5029 c 2.4491,2.4491 6.4035,2.4491 8.8526,0 l 1.3413,-1.3412 c 2.4491,-2.4493 2.4491,-6.4037 0,-8.8527 l -0.503,-0.503 c 1.0253,-1.823 1.8545,-3.7782 2.4312,-5.8347 l 0.7042,0 c 3.4635,0 6.2538,-2.7902 6.2538,-6.2538 l 0,-1.9114 c 0,-3.4635 -2.7903,-6.2537 -6.2538,-6.2537 l -0.7042,0 c -0.5767,-2.0565 -1.4059,-4.0115 -2.4312,-5.8348 l 0.503,-0.5029 c 2.4491,-2.4491 2.4491,-6.4035 0,-8.8527 l -1.3413,-1.3412 c -2.4491,-2.4491 -6.4035,-2.4491 -8.8526,0 l -0.503,0.5029 c -1.8231,-1.0252 -3.7783,-1.8543 -5.8346,-2.4311 l 0,-0.7042 c 0,-3.4635 -2.7903,-6.2538 -6.2539,-6.2538 l -1.9113,0 z m 0.9556,15.2575 c 9.5927,0 17.3699,7.7771 17.3699,17.3697 0,9.5926 -7.7772,17.3699 -17.3699,17.3699 -9.5926,0 -17.3698,-7.7773 -17.3698,-17.3699 0,-9.5926 7.7772,-17.3697 17.3698,-17.3697 z"
       id="path4595"
       inkscape:connector-curvature="0" />
  </g>
  <g
     inkscape:groupmode="layer"
     id="layer11"
     inkscape:label="chest_heart"
     style="display:none">
    <path
       style="color:#000000;fill:#1a1a1a;fill-opacity:1;fill-rule:nonzero;stroke:none;stroke-width:1px;marker:none;visibility:visible;display:inline;overflow:visible;enable-background:accumulate"
       d="m 256.50839,259.42697 c 0,-22.35467 -31.79933,-21.88847 -31.79933,-6.88422 0,-15.00425 -31.79933,-15.47046 -31.79933,6.88422 0,22.35467 31.79933,38.11578 31.79933,38.11578 0,0 31.79933,-15.7611 31.79933,-38.11578 z"
       id="path3425-1"
       inkscape:connector-curvature="0"
       sodipodi:nodetypes="zczcz" />
  </g>
  <g
     inkscape:groupmode="layer"
     id="layer4"
     inkscape:label="chest_bulb"
     style="display:none">
    <path
       inkscape:connector-curvature="0"
       id="path3381"
       d="m 224.70906,236.55872 c -15.05759,0 -27.26054,12.20292 -27.26054,27.2605 0,10.63016 6.07686,19.83426 14.9524,24.33097 l 0,10.67209 c 0,2.22577 1.8072,4.03297 4.03296,4.03297 l 16.55036,0 c 2.22576,0 4.01394,-1.8072 4.01394,-4.03297 l 0,-10.67209 c 8.87886,-4.49555 14.97142,-13.69837 14.97142,-24.33097 0,-15.05758 -12.20295,-27.2605 -27.26054,-27.2605 z m -5.51679,12.02279 14.36267,18.3956 -9.91119,5.55483 3.8998,12.82178 -12.36521,-16.41723 7.53326,-4.03296 -3.51933,-16.32202 z"
       style="fill:#1a1a1a;fill-opacity:1;stroke:none;display:inline" />
  </g>
  <g
     inkscape:groupmode="layer"
     id="layer5"
     inkscape:label="chest_spanner"
     style="display:none">
    <path
       inkscape:connector-curvature="0"
       id="path4628"
       d="m 173.25219,267.50459 c -6.22069,1.6668 -10.1125,5.3886 -9.38667,8.5649 l 0.021,0.079 c 0.0118,0.05 0.0142,0.097 0.0278,0.1476 0.0133,0.05 0.0395,0.1035 0.0528,0.153 l 1.52729,5.7 5.45513,-1.4617 c 0.13625,-0.023 0.26867,-0.059 0.40403,-0.095 l 15.73082,-4.2151 1.67053,6.2345 -15.73082,4.215 c -0.0508,0.013 -0.10222,0.04 -0.1526,0.054 l -5.70004,1.5274 1.52734,5.7001 c 0.0118,0.05 0.0172,0.1082 0.0307,0.1587 0.0129,0.049 0.0395,0.1036 0.0528,0.153 l 0.0151,0.056 c 0.92228,3.1363 5.08348,4.6996 12.41451,2.7351 l 11.11065,-2.977 c 0,0 12.17553,-3.2416 13.6827,-13.2837 l 40.52582,-10.8589 c 6.32636,7.9434 18.50249,4.6597 18.50249,4.6597 l 11.09952,-2.9741 c 7.33103,-1.9643 10.15307,-5.3988 9.38373,-8.5758 l -0.0154,-0.057 c -0.0129,-0.049 -0.0175,-0.1093 -0.0307,-0.1588 -0.0138,-0.051 -0.038,-0.1026 -0.0528,-0.153 l -1.52731,-5.7 -5.70006,1.5273 c -0.0504,0.014 -0.10849,0.016 -0.1592,0.029 l -15.73082,4.2151 -1.6705,-6.2345 15.73077,-4.215 c 0.13542,-0.036 0.26778,-0.072 0.39754,-0.1196 l 5.45513,-1.4617 -1.52734,-5.7 c -0.0129,-0.049 -0.0175,-0.1094 -0.0307,-0.1588 -0.0136,-0.05 -0.0351,-0.092 -0.0498,-0.1417 l -0.021,-0.079 c -0.95953,-3.1135 -6.19086,-4.3909 -12.41152,-2.724 l -11.12175,2.98 c 0,0 -12.52445,3.369 -13.83858,13.3254 l -40.18069,10.7665 c -6.11711,-7.9724 -18.65838,-4.618 -18.65838,-4.618 l -11.12179,2.9802 z"
       style="fill:#1a1a1a;fill-opacity:1;fill-rule:evenodd;stroke:none"
       sodipodi:nodetypes="ccccsccsccsscccccccccccccccccscccccccccscccccc" />
  </g>
  <g
     inkscape:groupmode="layer"
     id="layer6"
     inkscape:label="chest_bolt"
     style="display:none">
    <path
       style="fill:#1a1a1a;fill-opacity:1;stroke:none;display:inline"
       d="m 213.96971,238.68214 28.6383,30.6271 -16.3079,8.7506 4.773,22.672 -24.263,-28.6383 16.3079,-7.9551 z"
       id="path4691"
       inkscape:connector-curvature="0" />
  </g>
</svg>
