/* XPM */
static const char* bar_array[] = {
"342 12 546 2",
"  	c #0098DC",
". 	c #009ADD",
"+ 	c #009CDD",
"@ 	c #009EDE",
"# 	c #00A2DF",
"$ 	c #00A5E0",
"% 	c #00A8E1",
"& 	c #00ABE2",
"* 	c #00ADE4",
"= 	c #00AFE5",
"- 	c #00B0E6",
"; 	c #00B1E7",
"> 	c #00B1E8",
", 	c #00B1E9",
"' 	c #00B1EA",
") 	c #00B1EB",
"! 	c #00B0EB",
"~ 	c #00AFEA",
"{ 	c #00AEEA",
"] 	c #00ACE8",
"^ 	c #00A9E6",
"/ 	c #00A6E4",
"( 	c #00A3E2",
"_ 	c #00A0E0",
": 	c #000000",
"< 	c #000103",
"[ 	c #00080D",
"} 	c #000D16",
"| 	c #001524",
"1 	c #001F33",
"2 	c #002A44",
"3 	c #003356",
"4 	c #003C65",
"5 	c #00426E",
"6 	c #004674",
"7 	c #004775",
"8 	c #004370",
"9 	c #003D66",
"0 	c #003458",
"a 	c #002A47",
"b 	c #002036",
"c 	c #001625",
"d 	c #000E19",
"e 	c #000407",
"f 	c #000B13",
"g 	c #001421",
"h 	c #002034",
"i 	c #002D4B",
"j 	c #003C64",
"k 	c #004C7D",
"l 	c #005791",
"m 	c #0061A1",
"n 	c #0066AA",
"o 	c #0067AC",
"p 	c #0062A4",
"q 	c #005893",
"r 	c #004D7F",
"s 	c #002F4E",
"t 	c #002035",
"u 	c #001523",
"v 	c #00C9ED",
"w 	c #00B9E8",
"x 	c #00C9EE",
"y 	c #00CAEE",
"z 	c #00BAE9",
"A 	c #00CAEF",
"B 	c #00BAEA",
"C 	c #00CBEF",
"D 	c #00BBEA",
"E 	c #00BBEB",
"F 	c #00CBF0",
"G 	c #00CBF1",
"H 	c #00BBED",
"I 	c #00BDED",
"J 	c #00CCF1",
"K 	c #00DBF5",
"L 	c #00DCF5",
"M 	c #00DDF6",
"N 	c #00DEF6",
"O 	c #00D7F3",
"P 	c #00D9F5",
"Q 	c #00E1F7",
"R 	c #00E4F7",
"S 	c #00EAF9",
"T 	c #00E7F9",
"U 	c #00E5F8",
"V 	c #00E4F8",
"W 	c #00E2F8",
"X 	c #00E0F7",
"Y 	c #00DFF7",
"Z 	c #00DCF6",
"` 	c #00D0F3",
" .	c #00CFF3",
"..	c #00DAF6",
"+.	c #00DBF6",
"@.	c #00DEF7",
"#.	c #00E9F9",
"$.	c #00EAFA",
"%.	c #00E2F7",
"&.	c #00E8FA",
"*.	c #00E8F9",
"=.	c #00E6F9",
"-.	c #00E5F9",
";.	c #00DDF7",
">.	c #00E9FA",
",.	c #00EBFA",
"'.	c #00EDFB",
").	c #00EDFC",
"!.	c #00EEFC",
"~.	c #00EFFD",
"{.	c #00EEFD",
"].	c #1AEFFE",
"^.	c #37F1FE",
"/.	c #5AF3FF",
"(.	c #81F6FF",
"_.	c #A6F8FF",
":.	c #C0FAFF",
"<.	c #D1FAFE",
"[.	c #A6E8EE",
"}.	c #005C99",
"|.	c #002A45",
"1.	c #001B2D",
"2.	c #00B2E5",
"3.	c #009BDD",
"4.	c #00B2E6",
"5.	c #00B3E6",
"6.	c #009CDE",
"7.	c #009CE0",
"8.	c #00B3E7",
"9.	c #00B3E8",
"0.	c #009CE1",
"a.	c #00B4E8",
"b.	c #009DE1",
"c.	c #009FE2",
"d.	c #00B5E9",
"e.	c #00B5EA",
"f.	c #009FE4",
"g.	c #00B5EB",
"h.	c #009FE5",
"i.	c #00A0E5",
"j.	c #00B6EB",
"k.	c #00B7EB",
"l.	c #00B9EC",
"m.	c #00BBEC",
"n.	c #00AAE8",
"o.	c #00AEE9",
"p.	c #00B3EA",
"q.	c #00C2EE",
"r.	c #00D4F3",
"s.	c #00D8F4",
"t.	c #00D6F4",
"u.	c #00D3F4",
"v.	c #00C3EF",
"w.	c #00C1EF",
"x.	c #00BEEE",
"y.	c #00BDEE",
"z.	c #00BAED",
"A.	c #00CAF1",
"B.	c #00CBF2",
"C.	c #00CDF2",
"D.	c #00CEF2",
"E.	c #00D1F3",
"F.	c #00C6F1",
"G.	c #00C8F1",
"H.	c #00CCF2",
"I.	c #00CFF2",
"J.	c #00D4F5",
"K.	c #00D5F5",
"L.	c #00D7F5",
"M.	c #00E1F8",
"N.	c #00E0F8",
"O.	c #00D5F6",
"P.	c #00D9F6",
"Q.	c #00D8F6",
"R.	c #00DCF7",
"S.	c #1BE2F9",
"T.	c #31E8F9",
"U.	c #48EDFB",
"V.	c #5CF0FC",
"W.	c #72F4FD",
"X.	c #88F6FE",
"Y.	c #9EF8FE",
"Z.	c #B4F9FE",
"`.	c #CEFCFF",
" +	c #E6FDFF",
".+	c #F8FFFF",
"++	c #FFFFFF",
"@+	c #BBECF0",
"#+	c #005389",
"$+	c #003152",
"%+	c #009DDE",
"&+	c #00B5E6",
"*+	c #00B6E6",
"=+	c #00B7E7",
"-+	c #00B7E8",
";+	c #00B8E8",
">+	c #00BAE8",
",+	c #00A5E1",
"'+	c #00A4E1",
")+	c #00A3E1",
"!+	c #00B6E7",
"~+	c #00B5E7",
"{+	c #00B4E6",
"]+	c #00B6E9",
"^+	c #00B7EA",
"/+	c #00B8EA",
"(+	c #00B9EA",
"_+	c #00BAEB",
":+	c #00A6E6",
"<+	c #00A8E6",
"[+	c #00B9EB",
"}+	c #00B8EB",
"|+	c #00C1EE",
"1+	c #00C6EF",
"2+	c #00D5F4",
"3+	c #00C7F1",
"4+	c #00CEF3",
"5+	c #00DFF8",
"6+	c #00DAF7",
"7+	c #1BE4F9",
"8+	c #31EAFA",
"9+	c #48EEFB",
"0+	c #5CF2FC",
"a+	c #88F7FE",
"b+	c #9EF9FE",
"c+	c #B4FAFE",
"d+	c #EBFAFB",
"e+	c #00609F",
"f+	c #003558",
"g+	c #002239",
"h+	c #007FD4",
"i+	c #005BC8",
"j+	c #005ECA",
"k+	c #0060CA",
"l+	c #0064CB",
"m+	c #0059C6",
"n+	c #007FD3",
"o+	c #0067CC",
"p+	c #0069CC",
"q+	c #008ED9",
"r+	c #0090DA",
"s+	c #0091DA",
"t+	c #0093DB",
"u+	c #0094DC",
"v+	c #0095DC",
"w+	c #0096DD",
"x+	c #0097DD",
"y+	c #0079D3",
"z+	c #0078D3",
"A+	c #0076D1",
"B+	c #0075D3",
"C+	c #0092DC",
"D+	c #0091DB",
"E+	c #008FDB",
"F+	c #008DDA",
"G+	c #008BDA",
"H+	c #0089D9",
"I+	c #0086D8",
"J+	c #0084D7",
"K+	c #005CCB",
"L+	c #005ACA",
"M+	c #005BCB",
"N+	c #0081D7",
"O+	c #0081D8",
"P+	c #005BCC",
"Q+	c #005CCE",
"R+	c #0082D9",
"S+	c #005ECF",
"T+	c #0083DA",
"U+	c #0060D1",
"V+	c #0087DC",
"W+	c #0089DD",
"X+	c #008CDE",
"Y+	c #008EDE",
"Z+	c #0090DF",
"`+	c #0092DF",
" @	c #0094E0",
".@	c #0095E0",
"+@	c #0096E1",
"@@	c #0079D9",
"#@	c #007AD9",
"$@	c #007CD9",
"%@	c #007CDB",
"&@	c #007DDB",
"*@	c #009BE3",
"=@	c #009AE3",
"-@	c #009AE2",
";@	c #0099E2",
">@	c #0098E2",
",@	c #0095E1",
"'@	c #0094E1",
")@	c #0092E0",
"!@	c #0070D7",
"~@	c #006DD7",
"{@	c #006BD5",
"]@	c #0067D5",
"^@	c #0064D4",
"/@	c #0061D4",
"(@	c #0084DD",
"_@	c #005FD3",
":@	c #0060D4",
"<@	c #0085DE",
"[@	c #0085DF",
"}@	c #0089E0",
"|@	c #0093E3",
"1@	c #009DE5",
"2@	c #00A6E8",
"3@	c #0097E4",
"4@	c #00A3E6",
"5@	c #00ACE9",
"6@	c #00C7F0",
"7@	c #00C2EF",
"8@	c #00BFEE",
"9@	c #00BCED",
"0@	c #00AAE9",
"a@	c #00ADEA",
"b@	c #00B3EB",
"c@	c #00B7ED",
"d@	c #00BBEE",
"e@	c #00C6F0",
"f@	c #00BFEF",
"g@	c #00B9EE",
"h@	c #00A1E8",
"i@	c #00A0E8",
"j@	c #009FE8",
"k@	c #00B6ED",
"l@	c #00B8ED",
"m@	c #00BBEF",
"n@	c #00BDEF",
"o@	c #00C0F0",
"p@	c #00C3F0",
"q@	c #00B3ED",
"r@	c #00B7EE",
"s@	c #00BAEE",
"t@	c #00BEEF",
"u@	c #00CFF4",
"v@	c #00CEF4",
"w@	c #00CDF3",
"x@	c #00CBF3",
"y@	c #00CAF3",
"z@	c #00C7F2",
"A@	c #00C8F2",
"B@	c #00C9F3",
"C@	c #1BD7F6",
"D@	c #31DFF8",
"E@	c #48E7FA",
"F@	c #5CECFB",
"G@	c #72F1FC",
"H@	c #88F4FD",
"I@	c #9EF6FE",
"J@	c #CEFBFF",
"K@	c #0068CC",
"L@	c #006BCE",
"M@	c #006ECF",
"N@	c #0080D4",
"O@	c #0082D5",
"P@	c #0072D0",
"Q@	c #009EDF",
"R@	c #00A1E0",
"S@	c #0089D8",
"T@	c #008AD8",
"U@	c #0086D7",
"V@	c #00A1E1",
"W@	c #009FE0",
"X@	c #009DDF",
"Y@	c #009BDF",
"Z@	c #0099DE",
"`@	c #0091DC",
" #	c #008EDB",
".#	c #0069CF",
"+#	c #0065CE",
"@#	c #0061CC",
"##	c #005ECB",
"$#	c #005BCA",
"%#	c #005FCF",
"&#	c #0061D0",
"*#	c #0065D1",
"=#	c #008FDE",
"-#	c #0091DF",
";#	c #0099E1",
">#	c #009BE2",
",#	c #009DE3",
"'#	c #00A0E3",
")#	c #0086DC",
"!#	c #0087DD",
"~#	c #008ADD",
"{#	c #008BDE",
"]#	c #00A7E6",
"^#	c #00A5E5",
"/#	c #00A3E5",
"(#	c #00A2E5",
"_#	c #00A0E4",
":#	c #0078D9",
"<#	c #0075D9",
"[#	c #0071D8",
"}#	c #006ED7",
"|#	c #008DE0",
"1#	c #008ADF",
"2#	c #0087DE",
"3#	c #0085DD",
"4#	c #0060D5",
"5#	c #006ED9",
"6#	c #007ADC",
"7#	c #0086E0",
"8#	c #0090E2",
"9#	c #00B8EC",
"0#	c #00C0EF",
"a#	c #00B4EC",
"b#	c #00ABEA",
"c#	c #00A9E9",
"d#	c #008CE2",
"e#	c #008BE2",
"f#	c #008AE2",
"g#	c #0089E1",
"h#	c #0087E1",
"i#	c #00A5E8",
"j#	c #00A5E9",
"k#	c #00A7E9",
"l#	c #00A8E9",
"m#	c #00AAEA",
"n#	c #00ACEB",
"o#	c #00AEEB",
"p#	c #00B1EC",
"q#	c #00B4ED",
"r#	c #00A4E9",
"s#	c #00A8EA",
"t#	c #00B2ED",
"u#	c #00C9F2",
"v#	c #00CCF3",
"w#	c #00D1F4",
"x#	c #1BDCF7",
"y#	c #31E4F9",
"z#	c #48E9FA",
"A#	c #5CEEFB",
"B#	c #9EF7FE",
"C#	c #F8FEFF",
"D#	c #0081D5",
"E#	c #0084D6",
"F#	c #0063CB",
"G#	c #0099DD",
"H#	c #009FDF",
"I#	c #00A2E0",
"J#	c #00A8E2",
"K#	c #00AAE3",
"L#	c #00ACE4",
"M#	c #00AEE5",
"N#	c #0098DD",
"O#	c #009BDE",
"P#	c #00ABE4",
"Q#	c #00A9E3",
"R#	c #00A6E2",
"S#	c #009ADF",
"T#	c #0097DE",
"U#	c #0074D3",
"V#	c #0070D0",
"W#	c #006CD0",
"X#	c #0068CF",
"Y#	c #0064CE",
"Z#	c #0060CC",
"`#	c #0082D7",
" $	c #0060D0",
".$	c #0064D0",
"+$	c #0068D1",
"@$	c #008EDD",
"#$	c #0097E1",
"$$	c #009DE2",
"%$	c #009FE3",
"&$	c #00A2E4",
"*$	c #009CE4",
"=$	c #00B4EA",
"-$	c #00AFE8",
";$	c #00ADE8",
">$	c #00ABE7",
",$	c #008ADE",
"'$	c #0086DD",
")$	c #0083DD",
"!$	c #0081DC",
"~$	c #0094E2",
"{$	c #0092E1",
"]$	c #008FE0",
"^$	c #008CDF",
"/$	c #0089DE",
"($	c #0086DE",
"_$	c #0088E0",
":$	c #00A3E7",
"<$	c #0096E4",
"[$	c #0097E5",
"}$	c #0094E4",
"|$	c #0092E4",
"1$	c #00A7E8",
"2$	c #00A4E8",
"3$	c #00A2E7",
"4$	c #009FE6",
"5$	c #009BE5",
"6$	c #0099E5",
"7$	c #0070DB",
"8$	c #006DDB",
"9$	c #006CDB",
"0$	c #006BDB",
"a$	c #0069D9",
"b$	c #008DE2",
"c$	c #008EE3",
"d$	c #008FE3",
"e$	c #0090E3",
"f$	c #0095E5",
"g$	c #0097E6",
"h$	c #009AE7",
"i$	c #009EE7",
"j$	c #0085E1",
"k$	c #008FE4",
"l$	c #0094E5",
"m$	c #0099E6",
"n$	c #00BCEF",
"o$	c #00D0F4",
"p$	c #00D7F6",
"q$	c #00E2F9",
"r$	c #00E5FA",
"s$	c #00E7FA",
"t$	c #00E8FB",
"u$	c #00E8FC",
"v$	c #1AEBFD",
"w$	c #37EEFD",
"x$	c #5AF1FE",
"y$	c #81F4FE",
"z$	c #A6F6FE",
"A$	c #C0F8FE",
"B$	c #D1F7FD",
"C$	c #0077CD",
"D$	c #007ACE",
"E$	c #007CCF",
"F$	c #007ED0",
"G$	c #0082D2",
"H$	c #0086D3",
"I$	c #008AD5",
"J$	c #008DD6",
"K$	c #0091D8",
"L$	c #0094DA",
"M$	c #009ADE",
"N$	c #009BE0",
"O$	c #009EE1",
"P$	c #009CE2",
"Q$	c #0099E0",
"R$	c #0095DE",
"S$	c #008CD9",
"T$	c #0087D6",
"U$	c #0082D4",
"                                                                                                                                                                                                                                                                                                                                                                                                                                                                                                                                                                                                                                                            . + @ # $ % & * = - ; > , ' ) ) ! ~ { ] ^ / ( _ ",
": : : : : : : : : : : : : : : : : : : : : : : : : : : : : : : : : : : : : : : : : : : : : : : : : : : : : : : : : : : : : : : : : : : : : : : : : : : : : : : : : : : : : : : : : : : : : : : : : : : : : : : : : : : : : : : : : : : : : : : : : : : : : : : : : : : : : : : : : : : : : : : : : : : : : : : : : : : : : : : : : : : : : : : : : : : : : : : : : : : : : : : : : : : : : : : : : : : : : : : : : : : : : : : : : : : : : : : : : : : : : : : : : : : : : : : : : : : : : : : : : : : : : : : : : : : : : : : : : : : : : : : : : : : : : : : : : : : : : : : : : : : : : : : : : : : : : : : : : : : : : : : : : : : : : : : : : : : : : : : : : : : : < [ } | 1 2 3 4 5 6 7 8 9 0 a b c d ",
": : : : : : : : : : : : : : : : : : : : : : : : : : : : : : : : : : : : : : : : : : : : : : : : : : : : : : : : : : : : : : : : : : : : : : : : : : : : : : : : : : : : : : : : : : : : : : : : : : : : : : : : : : : : : : : : : : : : : : : : : : : : : : : : : : : : : : : : : : : : : : : : : : : : : : : : : : : : : : : : : : : : : : : : : : : : : : : : : : : : : : : : : : : : : : : : : : : : : : : : : : : : : : : : : : : : : : : : : : : : : : : : : : : : : : : : : : : : : : : : : : : : : : : : : : : : : : : : : : : : : : : : : : : : : : : : : : : : : : : : : : : : : : : : : : : : : : : : : : : : : : : : : : : : : : : : : : : : : : : : : : : : e f g h i j k l m n o p q r 9 s t u ",
"v v v v w w w w w w v v v v v v v v v w w w w w w v x x x x x y y y z z z z z z y y y y y y y y y z z z z z z v v v v v v v v w w w w w w v v v v v v v v v w w w w w w v x x x x x y y y z z z z z z y y y y y y y y y z z z z z z y y y y y y y y y z z z z z z y A A A A A A A A B B B B B B A A A A A A C C C D D D D D D C C C C C C C C C D D E E E E F F F F F F F F F E E E E E E F F F F F F F F F E E E E E E F F F F F F G G G H H H H H H G G G G G G G G G H H I I I I J J J J J K L M N O P K M Q R S T U V W X Y M Z ` `  . . . ...+.+.Z M @.Y Q W +.Z M @.X Q #.$.$.$.$.$.$.$.$.V U U V R %.&.*.T T =.=.=.-.-.;.;.@.@.@.X *.>.$.,.$.&.T =.-.U -.=.T #.,.'.).!.!.~.{.].^./.(._.:.<.[.}.j |.1.",
"2.2.2.3.3.3.3.3.3.2.2.2.2.2.2.2.2.2.3.3.3.3.3.3.2.2.4.4.4.4.4.5.5.6.6.6.6.6.6.5.5.5.5.5.5.5.5.5.6.6.6.7.7.7.8.2.2.2.2.2.2.2.3.3.3.3.3.3.2.2.2.2.2.2.2.2.2.3.3.3.3.3.3.2.2.4.4.4.4.4.5.5.6.6.6.6.6.6.5.5.5.5.5.5.5.5.5.6.6.6.7.7.7.8.8.8.8.8.8.8.8.8.7.7.7.7.7.7.8.8.9.9.9.9.9.9.9.0.0.0.0.0.0.9.9.9.9.9.9.9.a.a.b.b.b.b.b.b.a.a.a.a.a.a.a.a.a.b.b.b.c.c.c.d.d.d.d.d.d.d.d.d.c.c.c.c.c.c.d.d.d.d.d.d.d.e.e.f.f.f.f.f.f.e.e.e.e.e.e.e.g.g.h.h.h.h.h.h.g.g.g.g.g.g.g.g.g.h.h.h.i.i.i.j.j.j.j.j.j.k.l.m.n.o.p.k.I q.r.s.Z X X M P t.u.v.w.x.y.H z.A.A.A.G B.C.D. .E.F.G.A.H.I.E.N X Q %.Q X Y @.@.J.J.K.K.K.L.Q M.W W M.M.N.Y Y K.J.J.K.K.O.N.M.W M.N.@.;.+.P.Q.Q.P...R.S.T.U.V.W.X.Y.Z.`. +.+++++++++++@+#+$+h ",
"2.2.3.3.3.3.3.3.2.2.2.2.2.2.2.2.2.3.3.3.+ %+%+&+*+=+-+;+;+w w >+,+,+'+'+)+)+=+!+~+{+{+5.5.5.5.6.6.6.6.7.7.8.8.2.2.2.2.2.2.3.3.3.3.3.3.2.2.2.2.2.2.2.2.2.3.3.3.+ %+%+&+*+=+-+;+;+w w >+,+,+'+'+)+)+=+!+~+{+{+5.5.5.5.6.6.6.6.7.7.8.8.8.8.8.8.8.8.8.7.7.7.7.7.7.8.8.8.9.9.9.9.9.9.0.0.0.0.0.0.9.9.9.9.9.9.9.9.a.b.b.b.b.b.b.a.a.a.a.a.a.a.a.a.b.b.b.b.c.c.d.d.d.d.d.d.d.d.d.c.c.c.c.c.c.d.d.]+]+^+/+(+B _+:+:+:+<+<+<+m.m.m._+_+[+}+k.j.i.h.h.h.h.h.g.g.g.g.g.g.g.g.g.h.h.h.h.i.i.j.j.j.j.j.j.j.j.j.i.i.i.i.i.i.m.|+1+G ` 2+P N %.r.` H.G.F.v. .D.D.C.D.D.I.` E.1+3+A.H.I.E.N X %.X Y N Z +... .4+4+ . . .+.+.R.;.@.Y 5+N.M.P.P.P.Q.Q.Q.M.M.W W M.N.Y @.R.+...6++.R.@.7+8+9+0+W.a+b+c+`. +.+++++++++++d+e+f+g+",
"h+i+j+k+l+m+m+n+n+n+n+h+h+h+h+h+i+j+k+l+o+p+q+r+s+t+u+v+w+x+x+y+y+y+z+A+B+u+C+D+E+F+G+H+I+J+K+L+L+L+L+M+N+N+N+n+n+n+n+n+m+m+m+m+m+m+n+n+n+n+h+h+h+h+h+i+j+k+l+o+p+q+r+s+t+u+v+w+x+x+y+y+y+z+A+B+u+C+D+E+F+G+H+I+J+K+L+L+L+L+M+N+N+N+N+N+N+N+N+N+M+M+M+M+M+M+N+N+N+N+O+O+O+O+O+P+P+P+P+P+P+O+O+O+O+O+O+O+O+O+Q+Q+Q+Q+Q+Q+R+R+R+R+R+R+R+R+R+Q+Q+Q+Q+Q+S+T+T+T+T+T+T+T+T+T+S+S+S+S+S+U+V+W+X+Y+Z+`+ @.@+@@@#@$@%@&@&@*@=@-@;@>@+@,@'@)@!@~@{@]@^@/@(@(@(@(@(@(@(@(@(@_@_@_@_@_@:@<@<@<@<@<@<@<@<@<@:@:@:@:@:@:@<@<@<@<@[@}@|@1@2@3@4@5@g.y.H 6@7@8@y.9@H H H y.0@a@) b@c@d@D.H.G.e@7@f@y.d@g@h@i@j@j@j@i@k@c@l@g@m@n@f@o@p@q@k@r@s@n@t@4+ . .u@u@u@v@w@x@y@z@A@z@B@x@4+C@D@E@F@G@H@I@Z.J@ +.+++++++++++d+e+f+g+",
"k+l+K@L@M@m+n+n+n+n+n+h+h+N@O@k+l+K@L@M@P@v+  . 6.Q@_ R@)+'+S@T@T@T@S@U@V@W@X@Y@Z@w+u+`@ #.#+#@###$#L+N+N+N+N+n+n+n+n+m+m+m+m+m+m+n+n+n+n+n+h+h+N@O@k+l+K@L@M@P@v+  . 6.Q@_ R@)+'+S@T@T@T@S@U@V@W@X@Y@Z@w+u+`@ #.#+#@###$#L+N+N+N+N+N+N+N+N+N+M+M+M+M+M+M+N+N+N+N+N+O+O+O+O+P+P+P+P+P+P+O+O+O+O+O+O+O+O+O+P+Q+Q+Q+Q+Q+R+R+R+R+R+R+R+R+R+Q+Q+Q+Q+Q+Q+T+T+T+T+T+T+T+T+T+S+S+S+%#&#*#X+=#-# @+@;#>#,#'#)#!#~#{#X+X+]#]#]#:+^#/#(#_#,#&@%@:#<#[#}#|#1#2#3#(@(@(@(@(@_@_@_@_@_@_@<@<@<@<@<@<@<@<@<@:@:@:@:@:@:@<@<@<@<@<@[@[@[@[@4#4#5#6#7#8#) 9#y.7@e@G.A.H.H.y.d@z.c@g.) 0#y.z.c@a#) { b#c#d#e#f#g#h#g#i#j#k#l#m#n#o#p#q#h@r#s#n#o#t#3+u#B.v#4+u@u@u@u@u@u@4+ .v@ .w#J.x#y#z#A#G@H@B#Z.J@ +C#++++++++++@+#+$+h ",
"o+L@M@P@A+n+n+n+n+n+n+h+D#E#F#o+L@M@P@A+G#6.H#I#,+J#K#L#M#N#Z@6.O#G#x+* P#Q#R#)+_ X@S#T#U#V#W#X#Y#Z#`#N+N+N+N+n+n+n+m+m+m+m+m+m+n+n+n+n+n+n+h+D#E#F#o+L@M@P@A+G#6.H#I#,+J#K#L#M#N#Z@6.O#G#x+* P#Q#R#)+_ X@S#T#U#V#W#X#Y#Z#`#N+N+N+N+N+N+N+N+M+M+M+M+M+M+N+N+N+N+N+N+O+O+O+P+P+P+P+P+P+O+O+O+O+O+O+O+O+O+P+P+Q+Q+Q+Q+R+R+R+R+R+R+R+R+R+Q+Q+Q+Q+Q+Q+R+T+T+T+T+T+T+T+T+S+S+S+ $.$+$@$-# @#$-@$$%$&$^#Y+)@'@#$;@*$=$e.=$p., -$;$>$<+,$'$)$!$&@@@~${$]$^$/$($(@(@(@_@_@_@_@_@_@(@<@<@<@<@<@<@<@<@:@:@:@:@:@:@<@<@<@<@<@<@[@[@[@4#4#4#4#4#4#[@_$8#3@1@:$2@0@5@<$[$[$<$}$|$c#1$2$3$4$5$6$<$|@7$8$9$0$a$a$b$c$d$e$|$f$g$h$i$j$f#k$l$m$j@g@n$o@p@F.u#x@w@u@v@w@w@w@4+o$u.p$..R.N.q$r$s$t$u$u$v$w$x$y$z$A$B$[.}.j |.1.",
": : : : : : : : : : : : : : : : : : : : : : : : : : : : : : : : : : : : : : : : : : : : : : : : : : : : : : : : : : : : : : : : : : : : : : : : : : : : : : : : : : : : : : : : : : : : : : : : : : : : : : : : : : : : : : : : : : : : : : : : : : : : : : : : : : : : : : : : : : : : : : : : : : : : : : : : : : : : : : : : : : : : : : : : : : : : : : : : : : : : : : : : : : : : : : : : : : : : : : : : : : : : : : : : : : : : : : : : : : : : : : : : : : : : : : : : : : : : : : : : : : : : : : : : : : : : : : : : : : : : : : : : : : : : : : : : : : : : : : : : : : : : : : : : : : : : : : : : : : : : : : : : : : : : : : : : : : : : : : : : : : : : e f g h i j k l m n o p q r 9 s t u ",
": : : : : : : : : : : : : : : : : : : : : : : : : : : : : : : : : : : : : : : : : : : : : : : : : : : : : : : : : : : : : : : : : : : : : : : : : : : : : : : : : : : : : : : : : : : : : : : : : : : : : : : : : : : : : : : : : : : : : : : : : : : : : : : : : : : : : : : : : : : : : : : : : : : : : : : : : : : : : : : : : : : : : : : : : : : : : : : : : : : : : : : : : : : : : : : : : : : : : : : : : : : : : : : : : : : : : : : : : : : : : : : : : : : : : : : : : : : : : : : : : : : : : : : : : : : : : : : : : : : : : : : : : : : : : : : : : : : : : : : : : : : : : : : : : : : : : : : : : : : : : : : : : : : : : : : : : : : : : : : : : : : : < [ } | 1 2 3 4 5 6 7 8 9 0 a b c d ",
"C$C$C$C$C$C$C$C$C$C$C$C$C$C$C$C$C$C$C$C$C$C$C$C$C$C$C$C$C$C$C$C$C$C$C$C$C$C$C$C$C$C$C$C$C$C$C$C$C$C$C$C$C$C$C$C$C$C$C$C$C$C$C$C$C$C$C$C$C$C$C$C$C$C$C$C$C$C$C$C$C$C$C$C$C$C$C$C$C$C$C$C$C$C$C$C$C$C$C$C$C$C$C$C$C$C$C$C$C$C$C$C$C$C$C$C$C$C$C$C$C$C$C$C$C$C$C$C$C$C$C$C$C$C$C$C$C$C$C$C$C$C$C$C$C$C$C$C$C$C$C$C$C$C$C$C$C$C$C$C$C$C$C$C$C$C$C$C$C$C$C$C$C$C$C$C$C$C$C$C$C$C$C$C$C$C$C$C$C$C$C$C$C$C$C$C$C$C$C$C$C$C$C$C$C$C$C$C$C$C$C$C$C$C$C$C$C$C$C$C$C$C$C$C$C$C$C$C$C$C$C$C$C$C$C$C$C$C$C$C$C$C$C$C$C$C$C$C$C$C$C$C$C$C$C$C$C$C$C$C$C$C$C$C$C$C$C$C$C$C$C$C$C$C$C$C$C$C$C$C$C$C$C$C$C$C$C$C$C$C$C$C$C$C$C$C$C$C$C$C$C$C$C$C$C$C$C$C$C$C$C$C$C$C$C$C$C$C$D$E$F$G$H$I$J$K$L$v+N#M$N$b.O$$$$$P$Q$R$`@S$T$U$"};
